<?xml version="1.0" encoding="UTF-8"?>
<svg id="Layer_1" data-name="Layer 1" xmlns="http://www.w3.org/2000/svg" xmlns:xlink="http://www.w3.org/1999/xlink" viewBox="0 0 255 56">
  <defs>
    <style>
      .cls-1, .cls-2, .cls-3 {
        fill: none;
      }

      .cls-4 {
        fill: url(#radial-gradient-4);
      }

      .cls-4, .cls-5, .cls-6, .cls-7 {
        opacity: .77;
      }

      .cls-5 {
        fill: url(#radial-gradient-3);
      }

      .cls-6 {
        fill: url(#radial-gradient-2);
      }

      .cls-8 {
        stroke: #000;
        stroke-width: .06px;
      }

      .cls-8, .cls-3 {
        stroke-miterlimit: 10;
      }

      .cls-8, .cls-9 {
        fill: #fff;
      }

      .cls-10 {
        fill: #2d4355;
      }

      .cls-7 {
        fill: url(#radial-gradient);
      }

      .cls-11 {
        fill: #0cbbd1;
      }

      .cls-2 {
        stroke-linecap: round;
        stroke-linejoin: round;
        stroke-width: .41px;
      }

      .cls-2, .cls-3 {
        stroke: #fff;
      }

      .cls-3 {
        stroke-width: .51px;
      }

      .cls-12 {
        fill: #16416f;
      }

      .cls-13 {
        fill: #0e1013;
      }

      .cls-14 {
        clip-path: url(#clippath);
      }
    </style>
    <radialGradient id="radial-gradient" cx="25.44" cy="28" fx="25.44" fy="28" r="22.26" gradientTransform="translate(-.12 -7.82) rotate(-.16) scale(1 1.28)" gradientUnits="userSpaceOnUse">
      <stop offset="0" stop-color="#3876ba"/>
      <stop offset=".56" stop-color="#16416f"/>
      <stop offset=".86" stop-color="#000"/>
    </radialGradient>
    <clipPath id="clippath">
      <path class="cls-1" d="M25.44,15.26c10.82,0,17.77,5.78,20.66,15.12.06-.78.09-1.57.09-2.38,0-14.24-9.29-25.78-20.75-25.78S4.68,13.76,4.68,28c0,.79.04,1.58.09,2.35,3-9.32,9.85-15.1,20.66-15.1Z"/>
    </clipPath>
    <radialGradient id="radial-gradient-2" cx="25.44" cy="28" fx="25.44" fy="28" r="22.26" gradientTransform="translate(-.12 -7.82) rotate(-.16) scale(1 1.28)" gradientUnits="userSpaceOnUse">
      <stop offset=".81" stop-color="#16416f"/>
      <stop offset=".98" stop-color="#000"/>
    </radialGradient>
    <radialGradient id="radial-gradient-3" cx="6.7" cy="39.22" fx="6.7" fy="39.22" r="6.67" gradientTransform="translate(-12.24 -37.39) rotate(-9.02) scale(1 2)" gradientUnits="userSpaceOnUse">
      <stop offset="0" stop-color="#1f5fa3"/>
      <stop offset=".7" stop-color="#16416f"/>
      <stop offset="1" stop-color="#000"/>
    </radialGradient>
    <radialGradient id="radial-gradient-4" cx="12145.67" fx="12145.67" gradientTransform="translate(12052.01 1865.45) rotate(-170.98) scale(1 -2)" xlink:href="#radial-gradient-3"/>
  </defs>
  <g>
    <path class="cls-12" d="M46.19,28c0,14.24-9.29,25.78-20.75,25.78-5.21,0-9.97-2.38-13.61-6.32-4.37-4.73-7.14-11.69-7.14-19.46C4.68,13.76,13.97,2.22,25.44,2.22s20.75,11.54,20.75,25.78Z"/>
    <path class="cls-7" d="M46.19,28c0,14.24-9.29,25.78-20.75,25.78-5.21,0-9.97-2.38-13.61-6.32-4.37-4.73-7.14-11.69-7.14-19.46C4.68,13.76,13.97,2.22,25.44,2.22s20.75,11.54,20.75,25.78Z"/>
    <g class="cls-14">
      <path class="cls-6" d="M46.19,28c0,14.24-9.29,25.78-20.75,25.78-5.21,0-9.97-2.38-13.61-6.32-4.37-4.73-7.14-11.69-7.14-19.46C4.68,13.76,13.97,2.22,25.44,2.22s20.75,11.54,20.75,25.78Z"/>
    </g>
    <g>
      <path d="M4.67,27.35s18.67,7.8,41.5,0v1.19s-18.25,9.2-41.5.13v-1.33s0,0,0,0Z"/>
      <path class="cls-3" d="M4.68,28.67s20.4,9.26,41.5-.13"/>
    </g>
    <g>
      <path class="cls-9" d="M8.54,19.15c.9-3.17.85-5.96-.11-6.24-.97-.28-2.48,2.07-3.39,5.24-.9,3.17-.85,5.96.11,6.24.97.28,2.48-2.07,3.39-5.24Z"/>
      <path d="M7.44,18.63c.59-2.43.39-4.56-.44-4.76-.83-.2-1.98,1.61-2.57,4.04-.59,2.43-.39,4.56.44,4.76.83.2,1.98-1.61,2.57-4.04Z"/>
    </g>
    <g>
      <path class="cls-9" d="M46.31,24.39c.97-.28,1.02-3.07.11-6.24-.9-3.17-2.42-5.51-3.39-5.24-.97.28-1.02,3.07-.11,6.24.9,3.17,2.42,5.51,3.39,5.24Z"/>
      <path d="M46.6,22.66c.83-.2,1.03-2.33.44-4.76-.59-2.43-1.74-4.24-2.57-4.04-.83.2-1.03,2.33-.44,4.76.59,2.43,1.74,4.24,2.57,4.04Z"/>
    </g>
    <g>
      <path class="cls-8" d="M8.92,22.08s-.9,4.44,2.56,5.62c0,0,3.86,1.66,13.52,1.79,6.13-.02,8.8-.3,14.25-1.94,0,0,3.02-.94,2.8-3.95-.22-3.01-.49-9.13-7.19-14.13,0,0-3.35-2.98-9.26-3.01,0,0-8.6-.51-13.41,6.78,0,0-2.89,3.84-3.26,8.83h0Z"/>
      <path class="cls-10" d="M11.01,21.96s-.79,3.95,2.23,4.99c0,0,3.37,1.48,11.81,1.59,5.35-.01,7.69-.27,12.44-1.72,0,0,2.64-.83,2.45-3.5-.19-2.67-.42-8.11-6.28-12.54,0,0-2.93-2.65-8.09-2.67,0,0-7.51-.45-11.71,6.02,0,0-2.52,3.41-2.85,7.84h0Z"/>
      <path class="cls-13" d="M11.82,21.64s-.75,3.66,2.11,4.63c0,0,3.18,1.37,11.15,1.48,5.06-.01,7.26-.25,11.75-1.6,0,0,2.49-.77,2.31-3.25-.18-2.48-.4-7.53-5.93-11.65,0,0-2.76-2.46-7.64-2.48,0,0-7.09-.42-11.06,5.59,0,0-2.38,3.16-2.69,7.28h0Z"/>
      <path class="cls-9" d="M30.56,22.22c1.86,0,3.37-1.85,3.37-4.13s-1.51-4.13-3.37-4.13-3.37,1.85-3.37,4.13,1.51,4.13,3.37,4.13Z"/>
      <path class="cls-9" d="M30.56,22.19c1.51,0,2.73-1.85,2.73-4.13s-1.22-4.13-2.73-4.13-2.73,1.85-2.73,4.13,1.22,4.13,2.73,4.13Z"/>
      <path d="M30.56,21.03c1.23,0,2.23-1.36,2.23-3.04s-1-3.04-2.23-3.04-2.23,1.36-2.23,3.04,1,3.04,2.23,3.04Z"/>
      <path class="cls-9" d="M20.31,22.22c1.86,0,3.37-1.85,3.37-4.13s-1.51-4.13-3.37-4.13-3.37,1.85-3.37,4.13,1.51,4.13,3.37,4.13Z"/>
      <path class="cls-9" d="M20.31,22.19c1.51,0,2.73-1.85,2.73-4.13s-1.22-4.13-2.73-4.13-2.73,1.85-2.73,4.13,1.22,4.13,2.73,4.13Z"/>
      <path d="M20.3,21.03c1.23,0,2.23-1.36,2.23-3.04s-1-3.04-2.23-3.04-2.23,1.36-2.23,3.04,1,3.04,2.23,3.04Z"/>
      <circle class="cls-9" cx="19.74" cy="16.78" r=".7"/>
      <circle class="cls-9" cx="30" cy="16.78" r=".7"/>
      <path class="cls-2" d="M27.35,23.2c0,1.06-.86,1.92-1.92,1.92s-1.92-.86-1.92-1.92"/>
    </g>
    <g>
      <path class="cls-12" d="M8.04,51.48c3.21-.51,4.95-6.32,3.89-12.97-1.06-6.65-4.52-11.63-7.73-11.12-3.21.51-4.95,6.32-3.89,12.97,1.06,6.65,4.52,11.63,7.73,11.12Z"/>
      <path class="cls-5" d="M8.04,51.48c3.21-.51,4.95-6.32,3.89-12.97-1.06-6.65-4.52-11.63-7.73-11.12-3.21.51-4.95,6.32-3.89,12.97,1.06,6.65,4.52,11.63,7.73,11.12Z"/>
      <path class="cls-9" d="M10.85,49.12c.87-2.69,1.36-6.24.74-10.14-.83-5.24-2.94-9.27-5.39-11.22,2.7.98,5.2,5.12,6.09,10.69.7,4.4-.06,8.31-1.43,10.68h0Z"/>
    </g>
    <g>
      <path class="cls-12" d="M42.84,51.48c-3.21-.51-4.95-6.32-3.89-12.97,1.06-6.65,4.52-11.63,7.73-11.12,3.21.51,4.95,6.32,3.89,12.97-1.06,6.65-4.52,11.63-7.73,11.12Z"/>
      <path class="cls-4" d="M42.84,51.48c-3.21-.51-4.95-6.32-3.89-12.97,1.06-6.65,4.52-11.63,7.73-11.12,3.21.51,4.95,6.32,3.89,12.97-1.06,6.65-4.52,11.63-7.73,11.12Z"/>
      <path class="cls-9" d="M40.02,49.12c-.87-2.69-1.36-6.24-.74-10.14.83-5.24,2.94-9.27,5.39-11.22-2.7.98-5.2,5.12-6.09,10.69-.7,4.4.06,8.31,1.43,10.68h0Z"/>
    </g>
  </g>
  <g>
    <path class="cls-12" d="M67.17,10.71h4.3v2.43c.65-1.64,2.57-2.43,4.53-2.43h6.87c4.58,0,6.82,2.29,6.82,6.87v11.36c0,4.58-2.24,6.82-6.82,6.82h-6.87c-1.96,0-3.88-.75-4.53-2.38v11.55h-4.3V10.71ZM85.4,28.15v-9.77c0-2.38-1.17-3.55-3.55-3.55h-6.82c-2.38,0-3.55,1.17-3.55,3.55v9.77c0,2.38,1.17,3.55,3.55,3.55h6.82c2.38,0,3.55-1.17,3.55-3.55Z"/>
    <path class="cls-12" d="M109.29,10.76c4.58,0,6.82,2.29,6.82,6.82v1.82h-4.3v-1.03c0-2.38-1.08-3.55-3.32-3.55h-5.7c-2.38,0-3.55,1.17-3.55,3.55v17.44h-4.3V10.76h4.3v2.38c.51-1.5,2.15-2.38,4.16-2.38h5.89Z"/>
    <path class="cls-12" d="M119.48,17.59c0-4.53,2.24-6.82,6.82-6.82h8.88c4.58,0,6.82,2.29,6.82,6.82v11.41c0,4.53-2.24,6.82-6.82,6.82h-8.88c-4.58,0-6.82-2.29-6.82-6.82v-11.41ZM134.15,31.75c2.38,0,3.55-1.17,3.55-3.55v-9.82c0-2.38-1.17-3.55-3.55-3.55h-6.82c-2.38,0-3.55,1.17-3.55,3.55v9.82c0,2.38,1.17,3.55,3.55,3.55h6.82Z"/>
    <path class="cls-12" d="M147.29,10.71h4.3v2.43c.65-1.64,2.57-2.43,4.53-2.43h6.87c4.58,0,6.82,2.29,6.82,6.87v11.36c0,4.58-2.24,6.82-6.82,6.82h-6.87c-1.96,0-3.88-.75-4.53-2.38v11.55h-4.3V10.71ZM165.52,28.15v-9.77c0-2.38-1.17-3.55-3.55-3.55h-6.82c-2.38,0-3.55,1.17-3.55,3.55v9.77c0,2.38,1.17,3.55,3.55,3.55h6.82c2.38,0,3.55-1.17,3.55-3.55Z"/>
    <path class="cls-12" d="M175.1,10.71h4.3v2.43c.65-1.64,2.57-2.43,4.53-2.43h6.87c4.58,0,6.82,2.29,6.82,6.87v11.36c0,4.58-2.24,6.82-6.82,6.82h-6.87c-1.96,0-3.88-.75-4.53-2.38v11.55h-4.3V10.71ZM193.33,28.15v-9.77c0-2.38-1.17-3.55-3.55-3.55h-6.82c-2.38,0-3.55,1.17-3.55,3.55v9.77c0,2.38,1.17,3.55,3.55,3.55h6.82c2.38,0,3.55-1.17,3.55-3.55Z"/>
    <path class="cls-12" d="M201,44.93v-4.11h3.88c3.37,0,5.14-.89,6.12-2.99l.75-1.68-11.31-25.38h4.63l9.02,20.15,9.16-20.15h4.67l-12.48,27.63c-2.2,4.91-5.28,6.54-10.66,6.54h-3.79Z"/>
    <path class="cls-11" d="M226.07,35.18v-3.13h3.1v3.13h-3.1Z"/>
    <path class="cls-11" d="M245.62,25.83v-1.58c0-1.49-.73-2.23-2.23-2.23h-3.98c-1.49,0-2.23.73-2.23,2.23v.64h-2.69v-1.14c0-2.84,1.41-4.28,4.28-4.28h5.27c2.87,0,4.28,1.44,4.28,4.28v11.42h-2.69v-1.49c-.44,1.03-1.61,1.49-2.84,1.49h-4.31c-2.9,0-4.28-1.61-4.28-4.69s1.46-4.66,4.48-4.66h6.94ZM243.39,32.63c1.49,0,2.23-.73,2.23-2.23v-2.58h-6.41c-1.64,0-2.28.85-2.28,2.43s.7,2.37,2.2,2.37h4.28Z"/>
    <path class="cls-11" d="M252.31,14.76h2.69v2.99h-2.69v-2.99ZM252.31,19.48h2.69v15.7h-2.69v-15.7Z"/>
  </g>
</svg>